<?xml version="1.0" encoding="UTF-8" standalone="no"?>
<!-- Generator: Adobe Illustrator 19.0.0, SVG Export Plug-In . SVG Version: 6.00 Build 0)  -->

<svg
   xmlns:dc="http://purl.org/dc/elements/1.1/"
   xmlns:cc="http://creativecommons.org/ns#"
   xmlns:rdf="http://www.w3.org/1999/02/22-rdf-syntax-ns#"
   xmlns:svg="http://www.w3.org/2000/svg"
   xmlns="http://www.w3.org/2000/svg"
   xmlns:sodipodi="http://sodipodi.sourceforge.net/DTD/sodipodi-0.dtd"
   xmlns:inkscape="http://www.inkscape.org/namespaces/inkscape"
   version="1.1"
   id="Capa_1"
   x="0px"
   y="0px"
   viewBox="0 0 512 512"
   style="enable-background:new 0 0 512 512;"
   xml:space="preserve"
   sodipodi:docname="011-stars.svg"
   inkscape:version="0.92.4 5da689c313, 2019-01-14"><metadata
   id="metadata306"><rdf:RDF><cc:Work
       rdf:about=""><dc:format>image/svg+xml</dc:format><dc:type
         rdf:resource="http://purl.org/dc/dcmitype/StillImage" /><dc:title></dc:title></cc:Work></rdf:RDF></metadata><defs
   id="defs304" /><sodipodi:namedview
   pagecolor="#ffffff"
   bordercolor="#666666"
   borderopacity="1"
   objecttolerance="10"
   gridtolerance="10"
   guidetolerance="10"
   inkscape:pageopacity="0"
   inkscape:pageshadow="2"
   inkscape:window-width="1920"
   inkscape:window-height="1048"
   id="namedview302"
   showgrid="false"
   inkscape:zoom="1.6796875"
   inkscape:cx="256"
   inkscape:cy="256"
   inkscape:window-x="1920"
   inkscape:window-y="0"
   inkscape:window-maximized="1"
   inkscape:current-layer="g269" />
<path
   style="fill:#27536B;"
   d="M512,255.994c0,118.127-80.009,217.566-188.787,247.09c-10.926,2.965-22.14,5.23-33.598,6.729  c-10.992,1.443-22.217,2.187-33.609,2.187c-11.392,0-22.606-0.744-33.609-2.187c-11.458-1.499-22.673-3.764-33.609-6.729  C80.009,473.561,0,374.121,0,255.994C0,114.607,114.618,0,256.006,0C397.382,0,512,114.607,512,255.994z"
   id="path197" />


















<g
   id="g269">
	<polygon
   style="fill:#FFFFFF;"
   points="401.849,298.486 397.489,337.92 393.13,298.486 353.696,294.127 393.13,289.768    397.489,250.334 401.849,289.768 441.282,294.127  "
   id="polygon251" />
	<polygon
   style="fill:#FFFFFF;"
   points="423.235,137.617 420.396,163.295 417.557,137.617 391.878,134.778 417.557,131.939    420.396,106.261 423.235,131.939 448.913,134.778  "
   id="polygon253" />
	<polygon
   style="fill:#FFFFFF;"
   points="135.373,158.586 131.013,198.02 126.654,158.586 87.22,154.227 126.654,149.868    131.013,110.434 135.373,149.868 174.806,154.227  "
   id="polygon255" />
	
		<rect
   x="426.944"
   y="195.52"
   transform="matrix(-0.7071 -0.7071 0.7071 -0.7071 595.7656 648.1775)"
   style="fill:#FFFFFF;"
   width="10.362"
   height="10.362"
   id="rect257" />
	
		<rect
   x="153.678"
   y="316.613"
   transform="matrix(-0.7071 -0.7071 0.7071 -0.7071 43.647 661.6686)"
   style="fill:#FFFFFF;"
   width="10.362"
   height="10.362"
   id="rect259" />
	
		<rect
   x="477.654"
   y="303.293"
   transform="matrix(-0.7071 -0.7071 0.7071 -0.7071 606.1275 868.0138)"
   style="fill:#FFFFFF;"
   width="10.362"
   height="10.362"
   id="rect261" />
	
		<rect
   x="62.626"
   y="342.147"
   transform="matrix(-0.7071 -0.7071 0.7071 -0.7071 -129.8438 640.8745)"
   style="fill:#FFFFFF;"
   width="10.362"
   height="10.362"
   id="rect263" />
	
		<rect
   x="67.787"
   y="188.932"
   transform="matrix(-0.7071 -0.7071 0.7071 -0.7071 -12.6944 382.9681)"
   style="fill:#FFFFFF;"
   width="10.362"
   height="10.362"
   id="rect265" />
	
		<rect
   x="101.395"
   y="405.441"
   transform="matrix(-0.7071 -0.7071 0.7071 -0.7071 -108.4157 776.3365)"
   style="fill:#FFFFFF;"
   width="10.362"
   height="10.362"
   id="rect267" />
<rect
   x="-296.0748"
   y="160.2623"
   transform="rotate(-135)"
   style="fill:#ffffff;stroke-width:0.9999904"
   width="10.361901"
   height="10.361901"
   id="rect259-3" /><rect
   x="-561.71014"
   y="-71.69503"
   transform="rotate(-135)"
   style="fill:#ffffff;stroke-width:0.9999904"
   width="10.361901"
   height="10.361901"
   id="rect259-6" /><rect
   x="-196.72467"
   y="87.854568"
   transform="rotate(-135)"
   style="fill:#ffffff;stroke-width:0.9999904"
   width="10.361901"
   height="10.361901"
   id="rect259-7" /><polygon
   transform="matrix(1.3757791,0,0,1.2922777,-356.3062,250.90846)"
   style="fill:#ffffff"
   points="420.396,106.261 423.235,131.939 448.913,134.778 423.235,137.617 420.396,163.295 417.557,137.617 391.878,134.778 417.557,131.939 "
   id="polygon253-5" /><rect
   x="-458.15027"
   y="-28.755562"
   transform="rotate(-135)"
   style="fill:#ffffff;stroke-width:0.9999904"
   width="10.361901"
   height="10.361901"
   id="rect259-6-5" /></g>
<g
   id="g271">
</g>
<g
   id="g273">
</g>
<g
   id="g275">
</g>
<g
   id="g277">
</g>
<g
   id="g279">
</g>
<g
   id="g281">
</g>
<g
   id="g283">
</g>
<g
   id="g285">
</g>
<g
   id="g287">
</g>
<g
   id="g289">
</g>
<g
   id="g291">
</g>
<g
   id="g293">
</g>
<g
   id="g295">
</g>
<g
   id="g297">
</g>
<g
   id="g299">
</g>
<polygon
   transform="translate(-115.29366,-92.303744)"
   style="fill:#ffffff"
   points="397.489,250.334 401.849,289.768 441.282,294.127 401.849,298.486 397.489,337.92 393.13,298.486 353.696,294.127 393.13,289.768 "
   id="polygon251-3" /></svg>